<?xml version="1.0" encoding="UTF-8" standalone="no"?>
<!-- Created with Inkscape (http://www.inkscape.org/) -->

<svg
   xmlns:dc="http://purl.org/dc/elements/1.1/"
   xmlns:cc="http://creativecommons.org/ns#"
   xmlns:rdf="http://www.w3.org/1999/02/22-rdf-syntax-ns#"
   xmlns:svg="http://www.w3.org/2000/svg"
   xmlns="http://www.w3.org/2000/svg"
   version="1.1"
   width="512"
   height="512"
   id="svg2">
  <defs
     id="defs661" />
  <metadata
     id="metadata4321">
    <rdf:RDF>
      <cc:Work
         rdf:about="">
        <dc:format>image/svg+xml</dc:format>
        <dc:type
           rdf:resource="http://purl.org/dc/dcmitype/StillImage" />
        <dc:title></dc:title>
      </cc:Work>
    </rdf:RDF>
  </metadata>
  <g
     id="g3418">
    <path
       d="m 153,239 c -19.29628,10.1068 -35.89784,24.78369 -54.333641,36.46885 -9.746032,8.32066 -25.277462,12.6214 -28.707379,25.98943 10.307056,22.92658 37.56405,33.92848 53.60479,53.08074 23.28522,14.7741 12.39789,37.31214 10.86684,58.46127 -0.65103,19.79563 8.02486,38.22515 19.44408,53.8183 0.0876,13.91995 -31.90349,35.02457 -3.14719,41.12766 31.75568,-0.39587 63.54008,1.13262 95.2725,-0.006 19.25207,-6.5808 41.00426,2.46436 61.81371,-2.43182 23.28106,-1.22258 46.77912,-0.32628 69.92832,-2.57693 22.92231,-15.46076 -28.07351,-30.89777 -1.26144,-46.86781 C 390.50498,438.79689 387.18786,414.04679 382,394 c 17.87423,-14.93999 18.5116,-36.42509 19.87065,-57.42594 5.25206,-19.86251 14.03525,-38.69618 19.17732,-58.49812 -3.84842,-24.03985 -39.1751,-41.31194 -45.80958,-57.14885 17.78713,-29.29972 26.64951,-64.27647 19.59993,-98.29411 C 387.51638,67.544167 342.67824,21.758539 288.8189,10.337029 228.41755,-5.1087959 160.44586,26.883691 133.17057,82.782337 117.33803,113.72488 115.2685,151.24585 123.55952,184.65614 129.00838,205.07414 140.38108,222.47691 153,239 z"
       id="path6"
       style="fill:#010101" />
    <path
       d="m 328,25 1,1 z"
       id="path8"
       style="fill:#576e57" />
    <path
       d="m 267,26 1,1 -1,-1 z"
       id="path12"
       style="fill:#444b19" />
    <path
       d="m 180,329 18,8 c 9.24,-17.53 14.78,-38.36 21.56,-57 2.31,-6.35 3.57,-17.15 9.57,-21.24 4.73,-3.22 14.51,-0.44 19.87,0.07 10.84,1.03 23.37,0.68 34,-1.72 C 335.22,245.34 372.71,199.28 374.96,146 378.07,72.236 305.3,13.58 234,29.02 c -43.93,9.507 -76.57,43.459 -88.57,85.985 -10.53,37.33 1.89,78.48 27.37,106.83 6.71,7.46 14.87,14.11 23.29,19.57 3.73,2.42 9.79,4.83 10.96,9.62 1.32,5.42 -4.33,13.76 -5.85,18.98 -5.82,19.96 -16.4,38.78 -21.2,59 z"
       id="path14"
       style="fill:#ffff01" />
    <path
       d="m 275,27 1,1 -1,-1 m -39,1 1,1 -1,-1 m -8,2 1,1 -1,-1 z"
       id="path18"
       style="fill:#444b19" />
    <path
       d="m 291,31 1,1 -1,-1 z"
       id="path20"
       style="fill:#6c6c02" />
    <path
       d="m 207,38 1,1 -1,-1 z"
       id="path34"
       style="fill:#989801" />
    <path
       d="m 312,40 1,1 -1,-1 z"
       id="path38"
       style="fill:#989801" />
    <path
       d="m 313,40 1,1 -1,-1 z"
       id="path40"
       style="fill:#444b19" />
    <path
       d="m 320,44 1,1 -1,-1 z"
       id="path46"
       style="fill:#6c6c02" />
    <path
       d="m 321,45 1,1 -1,-1 m -130,2 1,1 -1,-1 z"
       id="path48"
       style="fill:#444b19" />
    <path
       d="m 192,47 1,1 -1,-1 z"
       id="path50"
       style="fill:#989801" />
    <path
       d="m 190,48 1,1 -1,-1 z"
       id="path54"
       style="fill:#989801" />
    <path
       d="m 326,48 1,1 -1,-1 z"
       id="path56"
       style="fill:#444b19" />
    <path
       d="m 327,49 1,1 -1,-1"
       id="path58"
       style="fill:#989801" />
    <path
       d="m 359,50 1,1 -1,-1 z"
       id="path60"
       style="fill:#9fc79f" />
    <path
       d="m 186,51 1,1 -1,-1 m -1,1 1,1 -1,-1 m -1,1 1,1 -1,-1 z"
       id="path62"
       style="fill:#989801" />
    <path
       d="m 182,54 1,1 -1,-1 m -1,1 1,1 -1,-1 z"
       id="path64"
       style="fill:#6c6c02" />
    <path
       d="m 334,55 1,1 -1,-1 z"
       id="path66"
       style="fill:#9fc79f" />
    <path
       d="m 180,56 1,1 -1,-1 z"
       id="path68"
       style="fill:#6c6c02" />
    <path
       d="m 179,57 1,1 -1,-1 m -1,1 1,1 -1,-1 m -1,1 1,1 z"
       id="path70"
       style="fill:#989801" />
    <path
       d="m 176,60 1,1 -1,-1 m -1,1 1,1 -1,-1 z"
       id="path72"
       style="fill:#6c6c02" />
    <path
       d="m 341,61 1,1 -1,-1 z"
       id="path74"
       style="fill:#989801" />
    <path
       d="m 174,62 1,1 -1,-1 z"
       id="path76"
       style="fill:#6c6c02" />
    <path
       d="m 342,62 1,1 -1,-1 z"
       id="path78"
       style="fill:#989801" />
    <path
       d="m 173,63 1,1 -1,-1 z"
       id="path80"
       style="fill:#6c6c02" />
    <path
       d="m 343,63 1,1 -1,-1 m -171,1 1,1 -1,-1 m 172,0 1,1 -1,-1 m -173,1 1,1 -1,-1 m -1,1 1,1 -1,-1 z"
       id="path82"
       style="fill:#989801" />
    <path
       d="m 299,75.518 c -52.42,11.12 -36.2,92.762 16,81.662 52.67,-11.2 36.32,-92.76 -16,-81.662 z"
       id="path88"
       style="fill:#010101" />
    <path
       d="m 354,77 1,1 -1,-1 z"
       id="path92"
       style="fill:#444b19" />
    <path
       d="m 161,78 1,1 -1,-1 z"
       id="path94"
       style="fill:#6c6c02" />
    <path
       d="m 203,78.432 c -41.94,5.523 -52.25,62.648 -12,79.888 7.45,3.19 18.11,2.68 26,1.47 48.64,-7.5 34.78,-87.781 -14,-81.358 z"
       id="path96"
       style="fill:#010101" />
    <path
       d="m 289,78 1,1 -1,-1 m 35,0 1,1 -1,-1 z"
       id="path98"
       style="fill:#989801" />
    <path
       d="m 355,78 1,1 -1,-1 z"
       id="path100"
       style="fill:#444b19" />
    <path
       d="m 221,80 1,1 -1,-1 z"
       id="path110"
       style="fill:#989801" />
    <path
       d="m 328,80 1,1 -1,-1 z"
       id="path114"
       style="fill:#9fc79f" />
    <path
       d="m 356,80 1,1 -1,-1 z"
       id="path116"
       style="fill:#6c6c02" />
    <path
       d="m 282,82 1,1 -1,-1 z"
       id="path120"
       style="fill:#6c6c02" />
    <path
       d="m 185,83 1,1 -1,-1 z"
       id="path122"
       style="fill:#444b19" />
    <path
       d="m 281,83 1,1 -1,-1 z"
       id="path124"
       style="fill:#989801" />
    <path
       d="m 358,83 1,1 -1,-1 m -174,1 1,1 -1,-1 z"
       id="path126"
       style="fill:#6c6c02" />
    <path
       d="m 228,84 1,1 -1,-1 z"
       id="path128"
       style="fill:#444b19" />
    <path
       d="m 280,84 1,1 -1,-1 z"
       id="path130"
       style="fill:#989801" />
    <path
       d="m 359,84 1,1 -1,-1 z"
       id="path132"
       style="fill:#444b19" />
    <path
       d="m 182,85 1,1 -1,-1 m 48,0 1,1 -1,-1 z"
       id="path134"
       style="fill:#6c6c02" />
    <path
       d="m 334,85 1,1 -1,-1 z"
       id="path138"
       style="fill:#444b19" />
    <path
       d="m 359,85 1,1 -1,-1 m -203,1 1,1 -1,-1 m 25,0 1,1 -1,-1 m 50,0 1,1 -1,-1 z"
       id="path140"
       style="fill:#6c6c02" />
    <path
       d="m 277,86 1,1 -1,-1 z"
       id="path142"
       style="fill:#989801" />
    <path
       d="m 305,86 1,1 -1,-1 z"
       id="path144"
       style="fill:#444b19" />
    <path
       d="m 335,86 1,1 -1,-1 z"
       id="path148"
       style="fill:#444b19" />
    <path
       d="m 232,87 1,1 -1,-1 z"
       id="path152"
       style="fill:#444b19" />
    <path
       d="m 276,87 1,1 -1,-1 z"
       id="path154"
       style="fill:#989801" />
    <path
       d="m 283,134 c 2.92303,-6.34588 4.80429,-9.36607 10.18,-11.66 15.75,-7.07 24.49,8.35 22.82,21.66 38.8,-11.2 14.11,-71.907 -22,-53.85 -4.34,2.168 -8.17,5.944 -10.96,9.85 -3.18,4.48 -5.24,9.49 -5.71,15 -0.59,6.86 2.59,13.13 5.67,19 z"
       id="path158"
       style="fill:#ffffff" />
    <path
       d="m 360,87 1,1 -1,-1 m -205,1 1,1 -1,-1 z"
       id="path162"
       style="fill:#989801" />
    <path
       d="m 178,88 1,1 -1,-1 z"
       id="path164"
       style="fill:#6c6c02" />
    <path
       d="m 276,88 1,1 z"
       id="path166"
       style="fill:#444b19" />
    <path
       d="m 297,88 1,1 -1,-1 z"
       id="path168"
       style="fill:#576e57" />
    <path
       d="m 235,89 1,1 -1,-1 z"
       id="path176"
       style="fill:#444b19" />
    <path
       d="m 275,89 1,1 -1,-1 z"
       id="path178"
       style="fill:#6c6c02" />
    <path
       d="m 319,89 1,1 -1,-1 z"
       id="path180"
       style="fill:#779375" />
    <path
       d="m 201,90 1,1 -1,-1 z"
       id="path184"
       style="fill:#9fc79f" />
    <path
       d="m 196,147 c -1.86,-8.13 -2.94,-15.07 3.38,-21.79 10.5,-11.16 28.74,-3.58 30.62,10.79 9.52,-9.43 5.95,-29.23 -3.17,-37.74 -12.58,-11.724 -31.99,-10.389 -42.89,2.76 -3.76,4.52 -5.37,9.22 -6.17,14.98 -0.77,5.56 0.25,11.88 2.58,17 3.12,6.83 8.9,11.17 15.65,14 z"
       id="path186"
       style="fill:#ffffff" />
    <path
       d="m 274,90 1,1 -1,-1 z"
       id="path190"
       style="fill:#989801" />
    <path
       d="m 320,90 1,1 -1,-1 z"
       id="path192"
       style="fill:#576e57" />
    <path
       d="m 175,91 1,1 z"
       id="path194"
       style="fill:#989801" />
    <path
       d="m 197,91 1,1 -1,-1 z"
       id="path196"
       style="fill:#444b19" />
    <path
       d="m 215,91 1,1 -1,-1 z"
       id="path198"
       style="fill:#576e57" />
    <path
       d="m 273,91 1,1 -1,-1 z"
       id="path202"
       style="fill:#989801" />
    <path
       d="m 291,91 1,1 -1,-1 z"
       id="path204"
       style="fill:#9fc79f" />
    <path
       d="m 290,92 1,1 -1,-1 z"
       id="path210"
       style="fill:#9fc79f" />
    <path
       d="m 324,92 1,1 -1,-1 z"
       id="path212"
       style="fill:#444b19" />
    <path
       d="m 238,93 1,1 -1,-1 m 34,0 1,1 -1,-1 z"
       id="path218"
       style="fill:#6c6c02" />
    <path
       d="m 288,93 1,1 -1,-1 z"
       id="path220"
       style="fill:#576e57" />
    <path
       d="m 289,93 1,1 -1,-1 z"
       id="path222"
       style="fill:#95bb95" />
    <path
       d="m 325,93 1,1 -1,-1 z"
       id="path224"
       style="fill:#444b19" />
    <path
       d="m 173,94 1,1 -1,-1 z"
       id="path226"
       style="fill:#6c6c02" />
    <path
       d="m 191,94 1,1 -1,-1 z"
       id="path230"
       style="fill:#9fc79f" />
    <path
       d="m 221,94 1,1 -1,-1 z"
       id="path232"
       style="fill:#779375" />
    <path
       d="m 222,94 1,1 -1,-1"
       id="path234"
       style="fill:#444b19" />
    <path
       d="m 271,94 1,1 -1,-1 z"
       id="path236"
       style="fill:#6c6c02" />
    <path
       d="m 287,94 1,1 -1,-1 z"
       id="path238"
       style="fill:#95bb95" />
    <path
       d="m 326,94 1,1 -1,-1 z"
       id="path240"
       style="fill:#779375" />
    <path
       d="m 240,95 1,1 -1,-1 z"
       id="path250"
       style="fill:#444b19" />
    <path
       d="m 286,95 1,1 -1,-1 z"
       id="path252"
       style="fill:#9fc79f" />
    <path
       d="m 364,95 1,1 z"
       id="path256"
       style="fill:#989801" />
    <path
       d="m 285,96 1,1 -1,-1 z"
       id="path260"
       style="fill:#9fc79f" />
    <path
       d="m 284,97 1,1 -1,-1 z"
       id="path264"
       style="fill:#9fc79f" />
    <path
       d="m 126,99 1,1 -1,-1 z"
       id="path272"
       style="fill:#576e57" />
    <path
       d="m 185,99 1,1 -1,-1 z"
       id="path274"
       style="fill:#9fc79f" />
    <path
       d="m 366,99 1,1 -1,-1 z"
       id="path276"
       style="fill:#444b19" />
    <path
       d="m 169,100 1,1 -1,-1 z"
       id="path278"
       style="fill:#6c6c02" />
    <path
       d="m 184,100 1,1 -1,-1 z"
       id="path280"
       style="fill:#9fc79f" />
    <path
       d="m 345,100 1,1 -1,-1 m 21,0 1,1 -1,-1 z"
       id="path286"
       style="fill:#989801" />
    <path
       d="m 149,101 1,1 -1,-1 z"
       id="path288"
       style="fill:#6c6c02" />
    <path
       d="m 182,102 1,1 -1,-1 z"
       id="path300"
       style="fill:#9fc79f" />
    <path
       d="m 230,102 1,1 -1,-1 z"
       id="path302"
       style="fill:#444b19" />
    <path
       d="m 244,102 1,1 -1,-1 z"
       id="path304"
       style="fill:#6c6c02" />
    <path
       d="m 346,103 1,1 -1,-1 z"
       id="path322"
       style="fill:#444b19" />
    <path
       d="m 233,107 1,1 -1,-1 z"
       id="path330"
       style="fill:#444b19" />
    <path
       d="m 166,108 1,1 -1,-1 z"
       id="path332"
       style="fill:#989801" />
    <path
       d="m 246,108 1,1 -1,-1 z"
       id="path334"
       style="fill:#6c6c02" />
    <path
       d="m 278,108 1,1 -1,-1"
       id="path338"
       style="fill:#576e57" />
    <path
       d="m 369,108 1,1 -1,-1 m -223,1 1,1 -1,-1 z"
       id="path340"
       style="fill:#444b19" />
    <path
       d="m 178,109 1,1 -1,-1 z"
       id="path342"
       style="fill:#576e57" />
    <path
       d="m 234,110 1,1 -1,-1 z"
       id="path348"
       style="fill:#95bb95" />
    <path
       d="m 372,117 1,1 -1,-1 z"
       id="path360"
       style="fill:#444b19" />
    <path
       d="m 213,119 1,1 -1,-1 z"
       id="path366"
       style="fill:#576e57" />
    <path
       d="m 206,120 1,1 -1,-1"
       id="path368"
       style="fill:#779375" />
    <path
       d="m 295,121 1,1 -1,-1 z"
       id="path370"
       style="fill:#9fc79f" />
    <path
       d="m 304,121 1,1 -1,-1 z"
       id="path372"
       style="fill:#576e57" />
    <path
       d="m 221,122 1,1 -1,-1 z"
       id="path374"
       style="fill:#444b19" />
    <path
       d="m 143,123 1,1 -1,-1 z"
       id="path378"
       style="fill:#6c6c02" />
    <path
       d="m 200,123 1,1 -1,-1 z"
       id="path380"
       style="fill:#9fc79f" />
    <path
       d="m 223,123 1,1 -1,-1 z"
       id="path382"
       style="fill:#576e57" />
    <path
       d="m 199,124 1,1 -1,-1 z"
       id="path390"
       style="fill:#9fc79f" />
    <path
       d="m 224,124 1,1 -1,-1 m 54,0 1,1 -1,-1 z"
       id="path392"
       style="fill:#576e57" />
    <path
       d="m 289,124 1,1 -1,-1 z"
       id="path394"
       style="fill:#9fc79f" />
    <path
       d="m 310,124 1,1 -1,-1 z"
       id="path396"
       style="fill:#926a61" />
    <path
       d="m 311,124 1,1 -1,-1 z"
       id="path398"
       style="fill:#95bb95" />
    <path
       d="m 198,125 1,1 -1,-1 z"
       id="path400"
       style="fill:#9fc79f" />
    <path
       d="m 225,125 1,1 -1,-1 z"
       id="path402"
       style="fill:#444b19" />
    <path
       d="m 247,125 1,1 -1,-1 z"
       id="path404"
       style="fill:#989801" />
    <path
       d="m 266,125 1,1 -1,-1 z"
       id="path406"
       style="fill:#6c6c02" />
    <path
       d="m 312,125 1,1 -1,-1 z"
       id="path408"
       style="fill:#9fc79f" />
    <path
       d="m 166,130 1,1 -1,-1 z"
       id="path426"
       style="fill:#444b19" />
    <path
       d="m 195,130 1,1 -1,-1 z"
       id="path428"
       style="fill:#9fc79f" />
    <path
       d="m 315,130 1,1 -1,-1 z"
       id="path432"
       style="fill:#95bb95" />
    <path
       d="m 179,131 1,1 -1,-1 z"
       id="path434"
       style="fill:#926a61" />
    <path
       d="m 229,131 1,1 -1,-1 z"
       id="path436"
       style="fill:#9fc79f" />
    <path
       d="m 233,131 1,1 -1,-1 z"
       id="path438"
       style="fill:#779375" />
    <path
       d="m 281,131 1,1 -1,-1 z"
       id="path444"
       style="fill:#576e57" />
    <path
       d="m 284,131 1,1 -1,-1 z"
       id="path446"
       style="fill:#95bb95" />
    <path
       d="m 282,132 1,1 -1,-1 z"
       id="path450"
       style="fill:#9fc79f" />
    <path
       d="m 345,132 1,1 -1,-1 m -178,1 1,1 -1,-1 z"
       id="path454"
       style="fill:#989801" />
    <path
       d="m 180,133 1,1 -1,-1 z"
       id="path456"
       style="fill:#444b19" />
    <path
       d="m 194,133 1,1 -1,-1 z"
       id="path458"
       style="fill:#576e57" />
    <path
       d="m 232,133 1,1 -1,-1 z"
       id="path460"
       style="fill:#444b19" />
    <path
       d="m 231,135 1,1 -1,-1"
       id="path464"
       style="fill:#444b19" />
    <path
       d="m 169,138 1,1 -1,-1 z"
       id="path474"
       style="fill:#6c6c02" />
    <path
       d="m 243,138 1,1 -1,-1 m 28,0 1,1 -1,-1 z"
       id="path476"
       style="fill:#444b19" />
    <path
       d="m 342,138 1,1 -1,-1 z"
       id="path480"
       style="fill:#6c6c02" />
    <path
       d="m 169,139 1,1 -1,-1 z"
       id="path482"
       style="fill:#9fc79f" />
    <path
       d="m 243,139 1,1 -1,-1 z"
       id="path486"
       style="fill:#989801" />
    <path
       d="m 272,139 1,1 -1,-1 z"
       id="path488"
       style="fill:#6c6c02" />
    <path
       d="m 325,139 1,1 -1,-1 z"
       id="path490"
       style="fill:#444b19" />
    <path
       d="m 342,139 1,1 -1,-1 m -100,1 1,1 -1,-1 z"
       id="path492"
       style="fill:#9fc79f" />
    <path
       d="m 273,141 1,1 -1,-1 z"
       id="path496"
       style="fill:#989801" />
    <path
       d="m 274,142 1,1 -1,-1 z"
       id="path500"
       style="fill:#6c6c02" />
    <path
       d="m 275,143 1,1 -1,-1 z"
       id="path504"
       style="fill:#6c6c02" />
    <path
       d="m 190,144 1,1 -1,-1 z"
       id="path508"
       style="fill:#444b19" />
    <path
       d="m 276,144 1,1 -1,-1 z"
       id="path510"
       style="fill:#6c6c02" />
    <path
       d="m 192,145 1,1 -1,-1 z"
       id="path514"
       style="fill:#576e57" />
    <path
       d="m 237,146 1,1 -1,-1 z"
       id="path520"
       style="fill:#444b19" />
    <path
       d="m 175,147 1,1 z"
       id="path522"
       style="fill:#6c6c02" />
    <path
       d="m 237,147 1,1 -1,-1 m 42,0 1,1 -1,-1 z"
       id="path524"
       style="fill:#989801" />
    <path
       d="m 176,148 1,1 -1,-1 z"
       id="path526"
       style="fill:#6c6c02" />
    <path
       d="m 236,148 1,1 -1,-1 z"
       id="path528"
       style="fill:#444b19" />
    <path
       d="m 280,148 1,1 -1,-1 z"
       id="path530"
       style="fill:#989801" />
    <path
       d="m 177,149 1,1 -1,-1 z"
       id="path532"
       style="fill:#444b19" />
    <path
       d="m 281,149 1,1 -1,-1 z"
       id="path534"
       style="fill:#989801" />
    <path
       d="m 178,150 1,1 -1,-1 z"
       id="path536"
       style="fill:#444b19" />
    <path
       d="m 282,150 1,1 -1,-1 z"
       id="path538"
       style="fill:#6c6c02" />
    <path
       d="m 328,152 1,1 -1,-1 z"
       id="path542"
       style="fill:#989801" />
    <path
       d="m 182,153 1,1 -1,-1 z"
       id="path544"
       style="fill:#444b19" />
    <path
       d="m 325,153 1,1 -1,-1 z"
       id="path546"
       style="fill:#6c6c02" />
    <path
       d="m 326,153 1,1 -1,-1"
       id="path548"
       style="fill:#989801" />
    <path
       d="m 184,154 1,1 -1,-1 z"
       id="path550"
       style="fill:#444b19" />
    <path
       d="m 229,154 1,1 -1,-1"
       id="path552"
       style="fill:#989801" />
    <path
       d="m 320,155 1,1 -1,-1 z"
       id="path558"
       style="fill:#6c6c02" />
    <path
       d="m 223,157 1,1 -1,-1 m -32,1 1,1 z"
       id="path560"
       style="fill:#989801" />
    <path
       d="m 215,160 1,1 -1,-1 z"
       id="path566"
       style="fill:#9fc79f" />
    <path
       d="m 143,162 1,1 z"
       id="path568"
       style="fill:#6c6c02" />
    <path
       d="m 369,177 1,1 -1,-1 z"
       id="path578"
       style="fill:#6c6c02" />
    <path
       d="m 367,183 1,1 z"
       id="path580"
       style="fill:#989801" />
    <path
       d="m 149,184 1,1 -1,-1 z"
       id="path582"
       style="fill:#6c6c02" />
    <path
       d="m 366,185 1,1 -1,-1 z"
       id="path584"
       style="fill:#989801" />
    <path
       d="m 366,186 1,1 -1,-1 z"
       id="path586"
       style="fill:#444b19" />
    <path
       d="m 390,187 1,1 -1,-1 z"
       id="path590"
       style="fill:#576e57" />
    <path
       d="m 364,190 1,1 -1,-1 m -212,1 1,1 -1,-1 z"
       id="path592"
       style="fill:#989801" />
    <path
       d="m 364,191 1,1 -1,-1 z"
       id="path594"
       style="fill:#444b19" />
    <path
       d="m 153,193 1,1 -1,-1 m 1.33,1.67 0,0 m 1,2 0,0 M 360,198 l 1,1 z"
       id="path596"
       style="fill:#989801" />
    <path
       d="m 156,199 1,1 -1,-1 z"
       id="path598"
       style="fill:#6c6c02" />
    <path
       d="m 157,200 1,1 -1,-1 z"
       id="path600"
       style="fill:#444b19" />
    <path
       d="m 359,200 1,1 -1,-1 z"
       id="path602"
       style="fill:#6c6c02" />
    <path
       d="m 359,201 1,1 -1,-1 z"
       id="path604"
       style="fill:#444b19" />
    <path
       d="m 161,207 1,1 -1,-1 z"
       id="path608"
       style="fill:#989801" />
    <path
       d="m 355,207 1,1 -1,-1 z"
       id="path610"
       style="fill:#444b19" />
    <path
       d="m 162.33,208.67 c -108.22,202.22 -54.11,101.11 0,0 z"
       id="path612"
       style="fill:#989801" />
    <path
       d="m 354,208 1,1 -1,-1 z"
       id="path614"
       style="fill:#444b19" />
    <path
       d="m 163,210 1,1 -1,-1 m 3,4 1,1 -1,-1 m 1,1 1,1 -1,-1 m 182,0 1,1 -1,-1 m -181,1 1,1 -1,-1 z"
       id="path616"
       style="fill:#989801" />
    <path
       d="m 170,219 1,1 -1,-1 m 1,1 1,1 -1,-1 m 1,1 1,1 -1,-1 m 172,0 1,1 -1,-1 z"
       id="path620"
       style="fill:#989801" />
    <path
       d="m 173,222 1,1 -1,-1 z"
       id="path622"
       style="fill:#6c6c02" />
    <path
       d="m 343,222 1,1 -1,-1 m -1,1 1,1 -1,-1 z"
       id="path624"
       style="fill:#989801" />
    <path
       d="m 175,224 1,1 -1,-1 z"
       id="path626"
       style="fill:#6c6c02" />
    <path
       d="m 341,224 1,1 -1,-1 z"
       id="path628"
       style="fill:#989801" />
    <path
       d="m 176,225 1,1 -1,-1 z"
       id="path630"
       style="fill:#6c6c02" />
    <path
       d="m 177,226 1,1 -1,-1 m 1,1 1,1 -1,-1 m 1,1 1,1 -1,-1 m 158,0 1,1 -1,-1 z"
       id="path632"
       style="fill:#989801" />
    <path
       d="m 180,229 1,1 -1,-1 z"
       id="path634"
       style="fill:#6c6c02" />
    <path
       d="m 336,229 1,1 -1,-1 z"
       id="path636"
       style="fill:#989801" />
    <path
       d="m 181,230 1,1 -1,-1 z"
       id="path638"
       style="fill:#6c6c02" />
    <path
       d="m 334,230 1,1 -1,-1 z"
       id="path640"
       style="fill:#989801" />
    <path
       d="m 335,230 1,1 -1,-1 z"
       id="path642"
       style="fill:#444b19" />
    <path
       d="m 182,231 1,1 -1,-1 z"
       id="path644"
       style="fill:#6c6c02" />
    <path
       d="m 184,232 1,1 -1,-1 m 1,1 1,1 -1,-1 m 1,1 1,1 -1,-1 m 1,1 1,1 -1,-1 m 3,2 1,1 z"
       id="path646"
       style="fill:#989801" />
    <path
       d="m 326,237 1,1 -1,-1 z"
       id="path648"
       style="fill:#6c6c02" />
    <path
       d="m 191,238 1,1 -1,-1 z"
       id="path650"
       style="fill:#444b19" />
    <path
       d="m 192,238 1,1 -1,-1 z"
       id="path652"
       style="fill:#989801" />
    <path
       d="m 320,241 1,1 -1,-1 m -1,1 1,1 -1,-1 z"
       id="path654"
       style="fill:#6c6c02" />
    <path
       d="m 334,248 c -222.66667,176 -111.33333,88 0,0 z"
       id="path656"
       style="fill:#5a081a" />
    <path
       d="m 237,270 c -8.48,15.92 -15.41,36.57 -20.08,54 -1.36,5.06 -6.23,11.67 -4.89,17 3.2,12.76 17.13,22.54 28.97,25.62 22.34,5.83 48.15,7.53 70,-1.07 3.88,-1.53 9.74,-2.89 11.97,-6.74 2.07,-3.57 0.82,-8.86 1.2,-12.81 0.99,-10.2 6.53,-18.52 16.83,-21 0.01,-9.11 1.67,-18.72 8.46,-25.47 3.91,-3.89 10.2,-6.15 14.14,-1.19 9.75,12.3 -3.7,27.68 12.4,36.66 13.76,-29.42 26.34,-75.12 -15,-88.74 -5.23,-1.73 -11.36,-4.63 -17,-4.08 -10.25,1.01 -22.68,14.27 -32.42,18.73 -22.23,10.18 -50.54,14.88 -74.58,9.09 z"
       id="path658"
       style="fill:#ff013d" />
    <path
       d="m 199,243 1,1 -1,-1 z"
       id="path660"
       style="fill:#444b19" />
    <path
       d="m 315,244 1,1 z"
       id="path666"
       style="fill:#989801" />
    <path
       d="m 202,245 1,1 -1,-1 z"
       id="path670"
       style="fill:#444b19" />
    <path
       d="m 313,245 1,1 -1,-1 z"
       id="path672"
       style="fill:#989801" />
    <path
       d="m 314,245 1,1 -1,-1 z"
       id="path674"
       style="fill:#6c6c02" />
    <path
       d="m 311,246 1,1 -1,-1 z"
       id="path680"
       style="fill:#989801" />
    <path
       d="m 205,247 1,1 -1,-1 z"
       id="path684"
       style="fill:#444b19" />
    <path
       d="m 365,247 1,1 -1,-1 z"
       id="path686"
       style="fill:#5a081a" />
    <path
       d="m 206.67,249.33 c -137.78,175.11333 -68.89,87.55667 0,0 z"
       id="path688"
       style="fill:#6c6c02" />
    <path
       d="m 401,250 1,1 -1,-1 z"
       id="path692"
       style="fill:#576e57" />
    <path
       d="m 181,251 c -120.666667,174 -60.33333,87 0,0 z"
       id="path694"
       style="fill:#5a081a" />
    <path
       d="m 328,251 1,1 -1,-1 z"
       id="path698"
       style="fill:#5a081a" />
    <path
       d="m 181,253 c -120.666667,172.66667 -60.33333,86.33333 0,0 z"
       id="path700"
       style="fill:#a30127" />
    <path
       d="m 137,338 c 3.18,-4.17 6.58,-7.19 11,-10 -1.97,-3.92 -6.68,-6.5 -7.46,-11 -1.64,-9.41 12.19,-20.93 20.46,-21.82 4.38,-0.48 12.3,5.08 15.49,2.99 2.51,-1.64 3.42,-6.55 4.51,-9.17 3.1,-7.51 12.87,-25.96 7.97,-33.72 -2.47285,-3.92245 -7.70872,-3.82217 -13.38023,-2.14588 -7.63086,2.25541 -16.05037,7.36385 -19.58977,9.36588 -13.64,7.73 -26.48,17.21 -39,26.63 -3.86,2.9 -12.34,8.01 -13.48,13 -1.24,5.43 2.89,10.17 6.2,13.83 7.67,8.5 17.17,16.64 27.28,22.04 z"
       id="path702"
       style="fill:#ff013d" />
    <path
       d="m 185.67,252.33 c -123.78,173.11333 -61.89,86.55667 0,0 z"
       id="path704"
       style="fill:#a30127" />
    <path
       d="m 170,255 1,1 -1,-1 z"
       id="path718"
       style="fill:#a30127" />
    <path
       d="m 289,255 1,1 -1,-1 z"
       id="path720"
       style="fill:#989801" />
    <path
       d="m 320,256 1,1 -1,-1 z"
       id="path724"
       style="fill:#a30127" />
    <path
       d="m 230,257 1,1 -1,-1 z"
       id="path726"
       style="fill:#444b19" />
    <path
       d="m 281,257 1,1 -1,-1 z"
       id="path728"
       style="fill:#989801" />
    <path
       d="m 318,257 1,1 -1,-1 z"
       id="path730"
       style="fill:#5a081a" />
    <path
       d="m 163.33,258.67 c -108.886667,168.88667 -54.44333,84.44333 0,0 z"
       id="path734"
       style="fill:#5a081a" />
    <path
       d="m 205,258 1,1 -1,-1 m 23,0 1,1 -1,-1 z"
       id="path736"
       style="fill:#6c6c02" />
    <path
       d="m 161,259 1,1 z"
       id="path740"
       style="fill:#5a081a" />
    <path
       d="m 227,259 1,1 -1,-1 z"
       id="path742"
       style="fill:#6c6c02" />
    <path
       d="m 160.33,260.67 c -106.886667,167.55333 -53.44333,83.77667 0,0 z"
       id="path748"
       style="fill:#a30127" />
    <path
       d="m 226,260 1,1 -1,-1 z"
       id="path750"
       style="fill:#444b19" />
    <path
       d="m 154,263 1,1 -1,-1"
       id="path752"
       style="fill:#a30127" />
    <path
       d="m 223,267 1,1 -1,-1 z"
       id="path756"
       style="fill:#989801" />
    <path
       d="m 386,267 1,1 -1,-1 m -198,1 1,1 -1,-1 z"
       id="path760"
       style="fill:#5a081a" />
    <path
       d="m 201,268 1,1 -1,-1 z"
       id="path762"
       style="fill:#989801" />
    <path
       d="m 223.33,268.67 c -148.886667,162.22 -74.44333,81.11 0,0 z"
       id="path764"
       style="fill:#444b19" />
    <path
       d="m 222,270 c -148,161.33333 -74,80.66667 0,0 z"
       id="path768"
       style="fill:#6c6c02" />
    <path
       d="m 236,270 1,1 -1,-1 z"
       id="path770"
       style="fill:#5a081a" />
    <path
       d="m 200,271 c -133.333333,160.66667 -66.66667,80.33333 0,0 z"
       id="path774"
       style="fill:#989801" />
    <path
       d="m 235.33,271.67 0,0 M 245,271 l 1,1 -1,-1"
       id="path776"
       style="fill:#5a081a" />
    <path
       d="m 139,273 1,1 -1,-1 z"
       id="path778"
       style="fill:#a30127" />
    <path
       d="m 186.33,273.67 c -124.22,158.88667 -62.11,79.44333 0,0 z"
       id="path780"
       style="fill:#5a081a" />
    <path
       d="m 137,274 1,1 -1,-1 z"
       id="path784"
       style="fill:#a30127" />
    <path
       d="m 199,274 1,1 -1,-1 z"
       id="path786"
       style="fill:#6c6c02" />
    <path
       d="m 185,275 1,1 z"
       id="path788"
       style="fill:#a30127" />
    <path
       d="m 198.52215,276.58025 c -132.348099,156.9465 -66.17405,78.47325 0,0 z"
       id="path790"
       style="fill:#444b19" />
    <path
       d="m 234,275 1,1 -1,-1 z"
       id="path792"
       style="fill:#a30127" />
    <path
       d="m 134,276 1,1 -1,-1 z"
       id="path796"
       style="fill:#a30127" />
    <path
       d="m 133,277 1,1 -1,-1 z"
       id="path800"
       style="fill:#a30127" />
    <path
       d="m 131,278 1,1 -1,-1 m 53.33,0.67 c -0.05,0.05 -0.11,1.11 0.34,0.66 0.05,-0.05 0.11,-1.11 -0.34,-0.66 z"
       id="path802"
       style="fill:#5a081a" />
    <path
       d="m 130,279 1,1 -1,-1 z"
       id="path806"
       style="fill:#5a081a" />
    <path
       d="m 183.33,280.67 c -122.22,154.22 -61.11,77.11 0,0 z"
       id="path808"
       style="fill:#a30127" />
    <path
       d="m 127,281 1,1 -1,-1 z"
       id="path810"
       style="fill:#5a081a" />
    <path
       d="m 125.67,282.33 c -0.45,0.45 0.61,0.39 0.66,0.34 0.45,-0.45 -0.61,-0.39 -0.66,-0.34 z"
       id="path812"
       style="fill:#a30127" />
    <path
       d="m 218,282 1,1 -1,-1 z"
       id="path814"
       style="fill:#6c6c02" />
    <path
       d="m 231,282 1,1 -1,-1 m -107,1 1,1 -1,-1 z"
       id="path816"
       style="fill:#5a081a" />
    <path
       d="m 231.33,283.67 0,0"
       id="path820"
       style="fill:#a30127" />
    <path
       d="m 83,286 1,1 -1,-1 z"
       id="path822"
       style="fill:#9fc79f" />
    <path
       d="m 216.33,287.67 c -144.22,149.55333 -72.11,74.77667 0,0 z"
       id="path824"
       style="fill:#444b19" />
    <path
       d="m 180,289 1,1 -1,-1 z"
       id="path828"
       style="fill:#a30127" />
    <path
       d="m 215,289 c -143.333333,148.66667 -71.66667,74.33333 0,0 z"
       id="path830"
       style="fill:#989801" />
    <path
       d="m 193,290 1,1 -1,-1 m 22.33,0.67 c -0.05,0.05 -0.11,1.11 0.34,0.66 0.05,-0.05 0.11,-1.11 -0.34,-0.66 z"
       id="path832"
       style="fill:#6c6c02" />
    <path
       d="m 192.33,293.67 c -128.22,145.55333 -64.11,72.77667 0,0 z"
       id="path836"
       style="fill:#989801" />
    <path
       d="m 109,295 1,1 -1,-1 m 57,0 c -110.666667,144.66667 -55.33333,72.33333 0,0 z"
       id="path838"
       style="fill:#a30127" />
    <path
       d="m 178.33,295.67 c -118.886667,144.22 -59.44333,72.11 0,0 z"
       id="path840"
       style="fill:#5a081a" />
    <path
       d="m 191.33,295.67 c -127.553333,144.22 -63.77667,72.11 0,0 z"
       id="path842"
       style="fill:#6c6c02" />
    <path
       d="m 213,295 1,1 -1,-1 z"
       id="path844"
       style="fill:#989801" />
    <path
       d="m 108,296 1,1 -1,-1 m 46.67,0.33 c -103.113333,143.78 -51.55667,71.89 0,0 z"
       id="path850"
       style="fill:#a30127" />
    <path
       d="m 213,296 1,1 -1,-1 z"
       id="path852"
       style="fill:#6c6c02" />
    <path
       d="m 107,297 1,1 z"
       id="path854"
       style="fill:#a30127" />
    <path
       d="m 171.33,297.67 c -114.22,142.88667 -57.11,71.44333 0,0 z"
       id="path856"
       style="fill:#5a081a" />
    <path
       d="m 191,297 1,1 -1,-1 z"
       id="path858"
       style="fill:#989801" />
    <path
       d="m 226,297 1,1 -1,-1 m -119.67,1.67 c -70.886667,142.22 -35.443333,71.11 0,0 z"
       id="path860"
       style="fill:#a30127" />
    <path
       d="m 177,298 1,1 -1,-1 z"
       id="path862"
       style="fill:#5a081a" />
    <path
       d="m 190.33,298.67 c -126.886667,142.22 -63.44333,71.11 0,0 z"
       id="path864"
       style="fill:#444b19" />
    <path
       d="m 173.67,299.33 c -115.78,141.78 -57.89,70.89 0,0 z"
       id="path866"
       style="fill:#5a081a" />
    <path
       d="m 176,299 1,1 -1,-1"
       id="path868"
       style="fill:#a30127" />
    <path
       d="m 102,302 c -68,140 -34,70 0,0 z"
       id="path872"
       style="fill:#a30127" />
    <path
       d="m 147,302 c 1.10811,1.10811 1.10811,1.10811 0,0"
       id="path874"
       style="fill:#5a081a" />
    <path
       d="m 188,304 1,1 -1,-1 z"
       id="path876"
       style="fill:#6c6c02" />
    <path
       d="m 210,304 1,1 -1,-1 z"
       id="path878"
       style="fill:#989801" />
    <path
       d="m 223.33,305.67 0,0"
       id="path880"
       style="fill:#a30127" />
    <path
       d="m 209,306 1,1 -1,-1 z"
       id="path882"
       style="fill:#6c6c02" />
    <path
       d="m 208,312 c -138.666667,133.33333 -69.33333,66.66667 0,0 z"
       id="path890"
       style="fill:#444b19" />
    <path
       d="m 221.33,310.67 0,0 M 106,312 l 1,1 z"
       id="path892"
       style="fill:#a30127" />
    <path
       d="m 185,312 1,1 -1,-1 z"
       id="path894"
       style="fill:#444b19" />
    <path
       d="m 207.33,312.67 c -138.22,132.88667 -69.11,66.44333 0,0 z"
       id="path896"
       style="fill:#6c6c02" />
    <path
       d="m 107,313 1,1 -1,-1 z"
       id="path898"
       style="fill:#a30127" />
    <path
       d="m 140,313 c -93.333333,132.66667 -46.666667,66.33333 0,0 z"
       id="path900"
       style="fill:#5a081a" />
    <path
       d="m 185,313 1,1 -1,-1 z"
       id="path902"
       style="fill:#989801" />
    <path
       d="m 108,314 1,1 -1,-1 z"
       id="path904"
       style="fill:#a30127" />
    <path
       d="m 206.33,314.67 c -137.553333,131.55333 -68.77667,65.77667 0,0 z"
       id="path908"
       style="fill:#989801" />
    <path
       d="m 109,315 1,1 -1,-1 m 1.33,1.67 c -73.553333,130.22 -36.776667,65.11 0,0 z"
       id="path910"
       style="fill:#a30127" />
    <path
       d="m 183.33,317.67 c -122.22,129.55333 -61.11,64.77667 0,0 z"
       id="path914"
       style="fill:#444b19" />
    <path
       d="m 111,318 1,1 -1,-1 m 1,1 1,1 -1,-1 z"
       id="path916"
       style="fill:#a30127" />
    <path
       d="m 183,319 1,1 -1,-1 z"
       id="path918"
       style="fill:#989801" />
    <path
       d="m 218,319 1,1 -1,-1 z"
       id="path920"
       style="fill:#5a081a" />
    <path
       d="m 382,320 1,1 -1,-1 m -267,1 1,1 -1,-1 m 1,1 1,1 z"
       id="path922"
       style="fill:#a30127" />
    <path
       d="m 117,323 1,1 -1,-1 m 1,1 1,1 -1,-1"
       id="path926"
       style="fill:#a30127" />
    <path
       d="m 146,325 1,1 -1,-1 m 2.33,1.67 c -98.886667,123.55333 -49.443333,61.77667 0,0 z"
       id="path930"
       style="fill:#a30127" />
    <path
       d="m 180,326 1,1 -1,-1 z"
       id="path932"
       style="fill:#444b19" />
    <path
       d="m 335,326 1,1 -1,-1 m -213,1 1,1 -1,-1 m 93.33,0.67 c -143.553333,122.88667 -71.77667,61.44333 0,0 z"
       id="path934"
       style="fill:#a30127" />
    <path
       d="m 123,328 1,1 -1,-1 z"
       id="path938"
       style="fill:#a30127" />
    <path
       d="m 147,328 1,1 -1,-1 z"
       id="path940"
       style="fill:#5a081a" />
    <path
       d="m 201,328 1,1 -1,-1 z"
       id="path942"
       style="fill:#6c6c02" />
    <path
       d="m 201.33,329.67 c -134.22,121.55333 -67.11,60.77667 0,0 z"
       id="path944"
       style="fill:#444b19" />
    <path
       d="m 214.33,329.67 c -142.886667,121.55333 -71.44333,60.77667 0,0 z"
       id="path946"
       style="fill:#5a081a" />
    <path
       d="m 184,330 1,1 -1,-1 z"
       id="path948"
       style="fill:#989801" />
    <path
       d="m 373,333 1,1 z"
       id="path952"
       style="fill:#5a081a" />
    <path
       d="m 191,334 1,1 -1,-1 z"
       id="path954"
       style="fill:#444b19" />
    <path
       d="m 192,334 1,1 -1,-1 z"
       id="path956"
       style="fill:#989801" />
    <path
       d="m 199,334 1,1 -1,-1 z"
       id="path958"
       style="fill:#6c6c02" />
    <path
       d="m 327,334 1,1 -1,-1 z"
       id="path960"
       style="fill:#a30127" />
    <path
       d="m 374,334 1,1 -1,-1 z"
       id="path962"
       style="fill:#5a081a" />
    <path
       d="m 194.33,335.67 c -129.553333,117.55333 -64.77667,58.77667 0,0 z"
       id="path964"
       style="fill:#6c6c02" />
    <path
       d="m 375,335 1,1 -1,-1 m -241.33,1.33 c -89.113333,117.11333 -44.556667,58.55667 0,0 z"
       id="path968"
       style="fill:#5a081a" />
    <path
       d="m 195,336 1,1 -1,-1 z"
       id="path970"
       style="fill:#444b19" />
    <path
       d="m 198.33,336.67 c -132.22,116.88667 -66.11,58.44333 0,0 z"
       id="path972"
       style="fill:#989801" />
    <path
       d="m 104,337 1,1 -1,-1 z"
       id="path974"
       style="fill:#9fc79f" />
    <path
       d="m 197,337 1,1 -1,-1 z"
       id="path976"
       style="fill:#444b19" />
    <path
       d="m 343,338 1,1 -1,-1 z"
       id="path980"
       style="fill:#926a61" />
    <path
       d="m 344.04,338.74 c -8.51,3.44 -8.51,27.18 -1.48,32.23 3.87,2.78 17.29,-0.65 21.44,-2.32 23.49,-9.46 -4.63,-36.1 -19.96,-29.91 z"
       id="path982"
       style="fill:#fbb5a7" />
    <path
       d="m 341,339 1,1 -1,-1 m -1,1 1,1 -1,-1 z"
       id="path984"
       style="fill:#444b19" />
    <path
       d="m 357,340 1,1 -1,-1 z"
       id="path986"
       style="fill:#926a61" />
    <path
       d="m 211,341 1,1 -1,-1 z"
       id="path988"
       style="fill:#a30127" />
    <path
       d="m 212,342 1,1 -1,-1 z"
       id="path992"
       style="fill:#a30127" />
    <path
       d="m 339,342 1,1 -1,-1 m 22,0 1,1 -1,-1 z"
       id="path994"
       style="fill:#926a61" />
    <path
       d="m 324,343 1,1 -1,-1 z"
       id="path996"
       style="fill:#5a081a" />
    <path
       d="m 159,344 c -106,112 -53,56 0,0 z"
       id="path1000"
       style="fill:#b9867c" />
    <path
       d="m 213,344 1,1 -1,-1 z"
       id="path1002"
       style="fill:#a30127" />
    <path
       d="m 364,344 1,1 -1,-1 z"
       id="path1004"
       style="fill:#444b19" />
    <path
       d="m 201,365 c -6.76,-9.02 -21.93,-17.44 -33,-19.53 -4.52,-0.85 -12.18,-1.71 -14.24,3.59 -2.56,6.57 3.94,13.06 9.24,15.61 11.8,5.69 25.9,4.17 38,0.33 z"
       id="path1006"
       style="fill:#fbb5a7" />
    <path
       d="m 168,345 1,1 -1,-1 z"
       id="path1008"
       style="fill:#926a61" />
    <path
       d="m 214.33,345.67 c -142.886667,110.88667 -71.44333,55.44333 0,0 z"
       id="path1010"
       style="fill:#5a081a" />
    <path
       d="m 365,345 1,1 -1,-1 z"
       id="path1012"
       style="fill:#444b19" />
    <path
       d="m 215,347 1,1 -1,-1 z"
       id="path1016"
       style="fill:#a30127" />
    <path
       d="m 176,348 1,1 -1,-1 z"
       id="path1018"
       style="fill:#b9867c" />
    <path
       d="m 178.67,349.33 c -119.113333,108.44667 -59.55667,54.22333 0,0 z"
       id="path1022"
       style="fill:#444b19" />
    <path
       d="m 216,349 1,1 -1,-1 z"
       id="path1024"
       style="fill:#5a081a" />
    <path
       d="m 180.67,350.33 c -120.446667,107.78 -60.22333,53.89 0,0 z"
       id="path1026"
       style="fill:#926a61" />
    <path
       d="m 217,350 1,1 -1,-1 z"
       id="path1028"
       style="fill:#5a081a" />
    <path
       d="m 370,350 1,1 -1,-1 z"
       id="path1030"
       style="fill:#444b19" />
    <path
       d="m 182,351 1,1 -1,-1 z"
       id="path1032"
       style="fill:#b9867c" />
    <path
       d="m 183,351 1,1 -1,-1 z"
       id="path1034"
       style="fill:#576e57" />
    <path
       d="m 218,351 1,1 -1,-1 z"
       id="path1036"
       style="fill:#5a081a" />
    <path
       d="m 371,351 1,1 -1,-1 z"
       id="path1038"
       style="fill:#576e57" />
    <path
       d="m 185,352 1,1 -1,-1 z"
       id="path1040"
       style="fill:#444b19" />
    <path
       d="m 153,354 c -102,105.33333 -51,52.66667 0,0 z"
       id="path1046"
       style="fill:#444b19" />
    <path
       d="m 222,356 1,1 -1,-1"
       id="path1050"
       style="fill:#5a081a" />
    <path
       d="m 192,357 1,1 -1,-1 z"
       id="path1052"
       style="fill:#926a61" />
    <path
       d="m 223,357 1,1 -1,-1 z"
       id="path1054"
       style="fill:#5a081a" />
    <path
       d="m 155,358 1,1 -1,-1 z"
       id="path1056"
       style="fill:#b9867c" />
    <path
       d="m 338,358 1,1 -1,-1 z"
       id="path1058"
       style="fill:#444b19" />
    <path
       d="m 194.67,359.33 c -129.78,101.78 -64.89,50.89 0,0 z"
       id="path1060"
       style="fill:#b9867c" />
    <path
       d="m 320,361 1,1 -1,-1 z"
       id="path1064"
       style="fill:#5a081a" />
    <path
       d="m 199,362 1,1 -1,-1 z"
       id="path1066"
       style="fill:#926a61" />
    <path
       d="m 319,362 1,1 -1,-1 z"
       id="path1068"
       style="fill:#a30127" />
    <path
       d="m 200,363 1,1 -1,-1 z"
       id="path1072"
       style="fill:#926a61" />
    <path
       d="m 229,363 1,1 -1,-1 z"
       id="path1074"
       style="fill:#5a081a" />
    <path
       d="m 161,364 1,1 -1,-1 z"
       id="path1078"
       style="fill:#444b19" />
    <path
       d="m 162,364 1,1 -1,-1 m 39,0 -1,2 h 2 c 0,-1.85 0.3,-1.35 -1,-2 z"
       id="path1080"
       style="fill:#926a61" />
    <path
       d="m 163.67,365.33 c -109.113333,97.78 -54.55667,48.89 0,0 z"
       id="path1084"
       style="fill:#444b19" />
    <path
       d="m 199,365 1,1 -1,-1 z"
       id="path1086"
       style="fill:#b9867c" />
    <path
       d="m 311.67,365.33 c -207.78,97.78 -103.89,48.89 0,0 z"
       id="path1088"
       style="fill:#5a081a" />
    <path
       d="m 196,366 c -130.666667,97.33333 -65.33333,48.66667 0,0 z"
       id="path1090"
       style="fill:#444b19" />
    <path
       d="m 134,367 1,1 -1,-1 z"
       id="path1096"
       style="fill:#576e57" />
    <path
       d="m 191,367 1,1 -1,-1 z"
       id="path1098"
       style="fill:#b9867c" />
    <path
       d="m 244,367 1,1 -1,-1 m 61,0 1,1 -1,-1 z"
       id="path1100"
       style="fill:#a30127" />
    <path
       d="m 366,367 1,1 -1,-1 z"
       id="path1104"
       style="fill:#444b19" />
    <path
       d="m 364,368 1,1 -1,-1 z"
       id="path1106"
       style="fill:#926a61" />
    <path
       d="m 298,369 1,1 -1,-1 z"
       id="path1108"
       style="fill:#5a081a" />
    <path
       d="m 357,385 c -17.01,3.2 -27.07,2.97 -31,-16 -11.91,1.56 -23.62,7.8 -36,9.57 -4.1,0.59 -11.08,-0.98 -14.3,2.03 -5.1,4.77 -5.44,14.02 -5.74,20.4 -0.22,4.66 -2.39,9.33 -1.6,14 1.72,10.26 13.38,21.18 19.74,29 4.59,5.66 10.59,14.3 17.9,16.49 8.24,2.46 16.55,-4.65 23,-8.83 9.21,-5.99 19.98,-13.42 24.98,-23.66 2.33,-4.78 0.91,-11.82 1.04,-17 0.21,-8.7 1.98,-17.26 1.98,-26 z"
       id="path1110"
       style="fill:#95bb95" />
    <path
       d="m 358,370 1,1 -1,-1 z"
       id="path1116"
       style="fill:#444b19" />
    <path
       d="m 305,375 1,1 -1,-1 z"
       id="path1134"
       style="fill:#576e57" />
    <path
       d="m 157,384 c 0,13.94 -0.51,25.95 5.22,39 4.77,10.86 10.96,21.1 18.95,30 6.92,7.7 14.83,8.96 24.83,9 17.21,0.08 33.73,-6.21 42.48,-22 11.07,-19.97 3.58,-55.02 -21.52,-61.31 -7.81,-1.95 -23.68,6.35 -31.96,8.1 -13.65,2.89 -24.79,-0.54 -38,-2.79 z"
       id="path1138"
       style="fill:#9fc79f" />
    <path
       d="m 290,378 1,1 -1,-1 z"
       id="path1142"
       style="fill:#779375" />
    <path
       d="m 229,379 1,1 -1,-1 z"
       id="path1146"
       style="fill:#779375" />
    <path
       d="m 216,380 c -144,88 -72,44 0,0 z"
       id="path1148"
       style="fill:#576e57" />
    <path
       d="m 274.67,381.33 c -183.113333,87.11333 -91.55667,43.55667 0,0 z"
       id="path1150"
       style="fill:#444b19" />
    <path
       d="m 232.33,381.67 c -154.886667,86.88667 -77.44333,43.44333 0,0 z"
       id="path1152"
       style="fill:#779375" />
    <path
       d="m 211,382 c -140.666667,86.66667 -70.33333,43.33333 0,0 z"
       id="path1154"
       style="fill:#95bb95" />
    <path
       d="m 273,385 c -182,84.66667 -91,42.33333 0,0 z"
       id="path1156"
       style="fill:#444b19" />
    <path
       d="m 208,383 1,1 -1,-1 m 27,0 1,1 -1,-1 m 1,1 1,1 -1,-1"
       id="path1158"
       style="fill:#779375" />
    <path
       d="m 162,385 1,1 -1,-1 z"
       id="path1160"
       style="fill:#576e57" />
    <path
       d="m 238,385 1,1 -1,-1 z"
       id="path1162"
       style="fill:#444b19" />
    <path
       d="m 239,386 1,1 -1,-1 m 33,0 1,1 -1,-1"
       id="path1166"
       style="fill:#444b19" />
    <path
       d="m 137,387 1,1 -1,-1 z"
       id="path1168"
       style="fill:#9fc79f" />
    <path
       d="m 191,387 1,1 -1,-1 z"
       id="path1172"
       style="fill:#779375" />
    <path
       d="m 240,387 1,1 -1,-1 m 1,1 1,1 -1,-1 m 1,1 1,1 -1,-1 m -106,1 1,1 -1,-1 m 107,0 1,1 -1,-1 z"
       id="path1174"
       style="fill:#576e57" />
    <path
       d="m 136,391 1,1 -1,-1 z"
       id="path1176"
       style="fill:#9fc79f" />
    <path
       d="m 244,391 1,1 -1,-1 m 1.33,1.67 0,0 m 0.67,1.33 1,1 z"
       id="path1178"
       style="fill:#576e57" />
    <path
       d="m 155,395 1,1 -1,-1 z"
       id="path1180"
       style="fill:#779375" />
    <path
       d="m 251,403 1,1 -1,-1 z"
       id="path1186"
       style="fill:#444b19" />
    <path
       d="m 365,406 c -0.86,6.78 1.35,18.22 -1.49,24.2 -7.25,15.25 -24.45,25.44 -38.51,33.66 -6.58,3.84 -13.19,7.73 -21,5.03 -16.77,-5.8 -20.94,-25.76 -35,-33.89 0,8.86 0.3,16.69 3.74,25 17.58,42.43 71.5,11.84 89.46,-14 7.43,-10.69 13.35,-29.47 2.8,-40 m -208,3 1,1 -1,-1 z"
       id="path1198"
       style="fill:#576e57" />
    <path
       d="m 268,416 1,1 -1,-1 z"
       id="path1204"
       style="fill:#779375" />
    <path
       d="m 253,425 1,1 z"
       id="path1212"
       style="fill:#779375" />
    <path
       d="m 274,426 1,1 z"
       id="path1214"
       style="fill:#444b19" />
    <path
       d="m 275,427 1,1 -1,-1 z"
       id="path1216"
       style="fill:#779375" />
    <path
       d="m 278,431 1,1 -1,-1 z"
       id="path1220"
       style="fill:#779375" />
    <path
       d="m 155,432 c 2.63,10.96 11.11,20.8 17.28,30.04 2.17,3.23 4.52,8.56 8.1,10.4 4.57,2.35 11.58,2.11 16.62,2.72 15.31,1.83 33.26,2.59 48,-2.5 5.63,-1.95 11.75,-4.02 14.68,-9.66 2.98,-5.74 -0.56,-14.03 -1.68,-20 -5.56,5.92 -9.39,12.43 -16,17.54 -14.23,10.98 -43.14,17.76 -59,6.03 -12.43,-9.19 -17.42,-24.31 -28,-34.57 m 11,0 1,1 -1,-1 m 113,0 1,1 -1,-1 z"
       id="path1222"
       style="fill:#576e57" />
    <path
       d="m 362,432 1,1 -1,-1 z"
       id="path1224"
       style="fill:#444b19" />
    <path
       d="m 167,433 1,1 -1,-1 z"
       id="path1226"
       style="fill:#576e57" />
    <path
       d="m 349,433 1,1 -1,-1 z"
       id="path1232"
       style="fill:#576e57" />
    <path
       d="m 280,434 1,1 -1,-1"
       id="path1234"
       style="fill:#444b19" />
    <path
       d="m 281,435 1,1 -1,-1 z"
       id="path1238"
       style="fill:#444b19" />
    <path
       d="m 282,436 1,1 -1,-1 z"
       id="path1240"
       style="fill:#576e57" />
    <path
       d="m 169,437 1,1 -1,-1 z"
       id="path1242"
       style="fill:#444b19" />
    <path
       d="m 357,437 1,1 -1,-1 z"
       id="path1246"
       style="fill:#444b19" />
    <path
       d="m 170,438 1,1 -1,-1"
       id="path1248"
       style="fill:#779375" />
    <path
       d="m 356,438 1,1 -1,-1 m -186,1 1,1 -1,-1 z"
       id="path1250"
       style="fill:#444b19" />
    <path
       d="m 284,439 1,1 -1,-1 z"
       id="path1252"
       style="fill:#576e57" />
    <path
       d="m 355,439 1,1 -1,-1 m -197,1 1,1 -1,-1 m 13,0 1,1 -1,-1 z"
       id="path1254"
       style="fill:#444b19" />
    <path
       d="m 248,440 1,1 -1,-1 z"
       id="path1256"
       style="fill:#576e57" />
    <path
       d="m 285,440 1,1 -1,-1 z"
       id="path1258"
       style="fill:#444b19" />
    <path
       d="m 343,440 1,1 -1,-1 z"
       id="path1260"
       style="fill:#779375" />
    <path
       d="m 354,440 1,1 -1,-1 m -11,1 1,1 -1,-1 m -54,4 1,1 -1,-1 m -30,7 c -172.666667,40 -86.33333,20 0,0 z"
       id="path1262"
       style="fill:#444b19" />
    <path
       d="m 290,446 1,1 -1,-1 z"
       id="path1264"
       style="fill:#576e57" />
    <path
       d="m 236,453 1,1 -1,-1 m 90,0 1,1 -1,-1 z"
       id="path1268"
       style="fill:#576e57" />
    <path
       d="m 341,453 1,1 -1,-1 z"
       id="path1270"
       style="fill:#444b19" />
    <path
       d="m 297,454 1,1 -1,-1 z"
       id="path1274"
       style="fill:#444b19" />
    <path
       d="m 355,454 1,1 -1,-1 z"
       id="path1278"
       style="fill:#444b19" />
    <path
       d="m 233,455 1,1 -1,-1 z"
       id="path1280"
       style="fill:#576e57" />
    <path
       d="m 248,455 1,1 -1,-1 m 38,0 1,1 -1,-1 m 12,0 1,1 -1,-1 z"
       id="path1282"
       style="fill:#444b19" />
    <path
       d="m 320,456 1,1 -1,-1 z"
       id="path1288"
       style="fill:#576e57" />
    <path
       d="m 321,456 1,1 -1,-1 z"
       id="path1290"
       style="fill:#444b19" />
    <path
       d="m 229,457 1,1 -1,-1 z"
       id="path1292"
       style="fill:#779375" />
    <path
       d="m 288,457 1,1 -1,-1 z"
       id="path1294"
       style="fill:#444b19" />
    <path
       d="m 319,457 1,1 -1,-1 z"
       id="path1296"
       style="fill:#779375" />
    <path
       d="m 289,458 1,1 z"
       id="path1298"
       style="fill:#444b19" />
    <path
       d="m 375,459 1,1 -1,-1 z"
       id="path1300"
       style="fill:#9fc79f" />
    <path
       d="m 200,462 c -133.333333,33.33333 -66.66667,16.66667 0,0 z"
       id="path1308"
       style="fill:#576e57" />
  </g>
</svg>
